<svg id="图层_1" xmlns="http://www.w3.org/2000/svg" width="78" height="18" viewBox="0 0 78 18"><style>.st0{fill:#333}.st1{fill:#00a3ff}.st2{fill:#00c8dc}.st3{fill:#006eff}</style><g id="XMLID_25_"><path id="XMLID_38_" class="st0" d="M59.3 1.7h-8.9V3h2.7v4.8h-3.2v1.3h3.2V17h1.5V9.1H58v7.6h2.7v-1.3h-1.2V1.7h-.2zm-4.8 5.9V3H58v4.8h-3.4v-.2z"/><path id="XMLID_14_" class="st0" d="M34.5 13.3h7.1v1.3h-7.1z"/><path id="XMLID_33_" class="st0" d="M29.6 10.9c0 2.3-.1 4.2-.6 5.7 0 .1 0 .1.1.1h1.3c.5-2.2.5-4 .5-5.3h1.8v4h-1.2c-.1 0-.1 0-.1.1l.4 1.2h2.3v-15h-4.4l-.1 9.2zm1.4-.6v-3h1.8v3.2H31v-.2zM32.8 3v3.1H31V3h1.8z"/><path id="XMLID_30_" class="st0" d="M42.1 7h1.7V5.8h-5.1c.1-.4.2-.9.5-1.2h4.4V3.4h-1.2c.1-.7.5-1.6.5-1.6 0-.1 0-.1-.1-.1h-1.1l-.5 1.7h-1.6c.1-.7.2-1.5.4-2.2 0-.1 0-.1-.1-.1h-1.2c-.1.9-.2 1.7-.5 2.4h-.9l-.5-1.7h-1.1c-.1 0-.1 0-.1.1s.2.9.5 1.6h-1.2v1.2h2.8c-.1.4-.2.9-.5 1.2h-2.7v1.2h2.1c-.9 1.2-1.7 1.7-2.1 2v1.3c0 .1.1.1.2 0 .4-.1.9-.5 1.2-.9h4.9v1.8H37l.1-1.1c0-.1 0-.1-.1-.1h-1.2l-.1 2.2c0 .1 0 .1.1.1h6.6v3.2h-2.9c-.1 0-.1 0-.1.1l.4 1.2H44v-5.6h-1.6V8.9c.6.5 1.2 1 1.8 1.2.1.1.2.1.2 0V8.8c-.6-.2-1.5-.7-2.3-1.8zm-1.6 0c.2.5.6 1 1 1.3h-4.3c.4-.4.6-.9 1-1.3h2.3z"/><path id="XMLID_8_" class="st0" d="M51.2 12.4l-2.4 1.8V5.8h-3.2v1.5h1.8v8.1c-.5.4-.9.5-.9.5l.9 1.1 3.9-2.9-.1-1.7c.3 0 .2-.1 0 0z"/><path id="XMLID_7_" class="st0" d="M47.6 4.5H49c.2 0 .2-.1.2-.1l-2-3.1h-1.5l-.1.1c.1.1 2 3.1 2 3.1z"/><path id="XMLID_6_" class="st0" d="M63.6 2h11.2v1.5H63.6z"/><path id="XMLID_5_" class="st0" d="M67.7 8.9h8.8V7.4H62v1.5h4c-.9 2.2-2.8 7.6-2.9 7.7 0 .1 0 .1.1.1h12.5c.1 0 .1-.1.1-.1L74 11.7h-1.5c-.1 0-.1.1-.1.1 0 .1 1.3 3.5 1.3 3.5h-8.2l2.2-6.4z"/></g><g id="XMLID_19_"><path id="XMLID_22_" class="st1" d="M21.5 14.7c-.4.4-1.2 1-2.6 1h-8.6c2.6-2.5 4.8-4.6 5-4.8.2-.2.7-.7 1.2-1.1 1-.9 1.8-1 2.5-1 1 0 1.8.4 2.5 1 1.4 1.3 1.4 3.6 0 4.9m1.7-6.5c-1-1.1-2.5-1.8-4.1-1.8-1.4 0-2.6.5-3.7 1.3-.4.4-1 .8-1.5 1.4-.4.4-9 8.8-9 8.8.5.1 1.1.1 1.6.1h10.9c.8 0 1.4 0 2-.1 1.3-.1 2.6-.6 3.7-1.6 2.3-2.2 2.3-5.9.1-8.1z"/><path id="XMLID_2_" class="st2" d="M9.2 7.6C8.1 6.8 7 6.4 5.7 6.4c-1.6 0-3.1.7-4.1 1.8-2.2 2.3-2.2 5.9.1 8.2 1 .9 2 1.4 3.2 1.5l2.3-2.2H5.9c-1.3-.1-2.1-.5-2.6-1-1.4-1.4-1.4-3.6-.1-5 .7-.7 1.5-1 2.5-1 .6 0 1.5.1 2.4 1 .4.4 1.5 1.2 1.9 1.6h.1l1.5-1.5v-.1c-.7-.7-1.8-1.6-2.4-2.1"/><path id="XMLID_1_" class="st3" d="M19.7 5.1c-1.1-3-4-5.1-7.3-5.1-3.9 0-7 2.9-7.6 6.5.3 0 .6-.1 1-.1s.9.1 1.3.1c.5-2.5 2.7-4.3 5.3-4.3 2.2 0 4.1 1.3 5 3.2 0 0 .1.1.1 0 .7-.1 1.5-.3 2.2-.3 0 .1 0 .1 0 0"/></g></svg>
